<svg xmlns="http://www.w3.org/2000/svg" version="1.1" xmlns:xlink="http://www.w3.org/1999/xlink" xmlns:svgjs="http://svgjs.dev/svgjs" width="1000" height="623" viewBox="0 0 1000 623"><g transform="matrix(1,0,0,1,-0.6060606060606233,0.2522267206477409)"><svg viewBox="0 0 396 247" data-background-color="#222823" preserveAspectRatio="xMidYMid meet" height="623" width="1000" xmlns="http://www.w3.org/2000/svg" xmlns:xlink="http://www.w3.org/1999/xlink"><g id="tight-bounds" transform="matrix(1,0,0,1,0.2400000000000091,-0.09999999999999432)"><svg viewBox="0 0 395.52 247.2" height="247.2" width="395.52"><g><svg></svg></g><g><svg viewBox="0 0 395.52 247.2" height="247.2" width="395.52"><g transform="matrix(1,0,0,1,150.13673451568894,47.215199999999996)"><svg viewBox="0 0 95.24653096862211 152.7696" height="152.7696" width="95.24653096862211"><g><svg viewBox="0 0 95.24653096862211 152.7696" height="152.7696" width="95.24653096862211"><g><svg viewBox="0 0 95.24653096862211 152.7696" height="152.7696" width="95.24653096862211"><g><svg viewBox="0 0 95.24653096862211 152.7696" height="152.7696" width="95.24653096862211"><g id="textblocktransform"><svg viewBox="0 0 95.24653096862211 152.7696" height="152.7696" width="95.24653096862211" id="textblock"><g><svg viewBox="0 0 95.24653096862211 152.7696" height="152.7696" width="95.24653096862211"><g transform="matrix(1,0,0,1,0,0)"><svg width="95.24653096862211" viewBox="3.549999952316284 -36.54999923706055 22.850000381469727 36.64999771118164" height="152.7696" data-palette-color="#f4f7f5"><path d="M5.65 0L5.65 0Q4.9 0 4.23-0.38 3.55-0.75 3.55-1.5L3.55-1.5 3.55-35.1Q3.55-35.85 4.23-36.2 4.9-36.55 5.65-36.55L5.65-36.55Q6.45-36.55 7.1-36.2 7.75-35.85 7.75-35.1L7.75-35.1 7.75-18.55 21.2-35.95Q21.65-36.55 22.45-36.55L22.45-36.55Q23-36.55 23.55-36.23 24.1-35.9 24.45-35.43 24.8-34.95 24.8-34.4L24.8-34.4Q24.8-34.2 24.75-33.95 24.7-33.7 24.5-33.5L24.5-33.5 14.3-20.75 26.15-2.75Q26.4-2.4 26.4-2L26.4-2Q26.4-1.45 26.05-0.98 25.7-0.5 25.15-0.2 24.6 0.1 23.95 0.1L23.95 0.1Q23.55 0.1 23.15-0.1 22.75-0.3 22.45-0.75L22.45-0.75 11.5-17.2 7.75-12.55 7.75-1.5Q7.75-0.75 7.1-0.38 6.45 0 5.65 0Z" opacity="1" transform="matrix(1,0,0,1,0,0)" fill="#f4f7f5" class="undefined-text-0" data-fill-palette-color="primary" id="text-0"></path></svg></g></svg></g></svg></g></svg></g></svg></g></svg></g></svg></g><path d="M332.438 41.215L332.438 0 85.238 0 85.238 247.2 332.438 247.2 332.438 205.985 318.661 205.985 318.661 233.423 99.015 233.423 99.015 13.777 318.661 13.777 318.661 41.215Z" fill="#f4f7f5" stroke="transparent" data-fill-palette-color="primary"></path></svg></g><defs></defs></svg><rect width="395.52" height="247.2" fill="none" stroke="none" visibility="hidden"></rect></g></svg></g></svg>