<svg width="1200" height="627" viewBox="0 0 1200 627" fill="none" xmlns="http://www.w3.org/2000/svg">
<rect width="1200" height="627" fill="black"/>
<path d="M516.4 398.681L509.529 419.522L517.056 444.839H504.654L499.808 425.053V444.839H487.805V398.681H499.808V416.614L505.139 398.681H516.4ZM530.342 398.681V409.058C531.33 408.146 532.395 407.462 533.535 407.006C534.694 406.55 535.93 406.322 537.241 406.322C539.256 406.322 540.967 406.835 542.373 407.861C543.799 408.887 544.663 410.075 544.968 411.425C545.291 412.755 545.452 415.198 545.452 418.752V444.839H533.934V418.21C533.934 416.005 533.82 414.589 533.592 413.962C533.383 413.335 532.898 413.021 532.138 413.021C531.435 413.021 530.96 413.344 530.712 413.991C530.465 414.637 530.342 415.92 530.342 417.84V444.839H518.824V398.681H530.342ZM575.502 420.291V429.557C575.502 432.959 575.331 435.459 574.989 437.055C574.646 438.633 573.915 440.115 572.793 441.503C571.672 442.871 570.227 443.888 568.46 444.554C566.711 445.2 564.696 445.523 562.416 445.523C559.869 445.523 557.712 445.247 555.944 444.696C554.176 444.126 552.798 443.28 551.81 442.159C550.841 441.018 550.147 439.65 549.729 438.053C549.311 436.438 549.101 434.024 549.101 430.812V421.118C549.101 417.602 549.482 414.856 550.242 412.879C551.002 410.902 552.371 409.315 554.347 408.118C556.324 406.92 558.852 406.322 561.931 406.322C564.516 406.322 566.73 406.711 568.574 407.49C570.437 408.251 571.872 409.249 572.879 410.484C573.886 411.719 574.57 412.993 574.932 414.304C575.312 415.616 575.502 417.612 575.502 420.291ZM563.984 417.44C563.984 415.502 563.879 414.285 563.67 413.791C563.461 413.278 563.014 413.021 562.33 413.021C561.646 413.021 561.19 413.278 560.962 413.791C560.734 414.285 560.62 415.502 560.62 417.44V434.518C560.62 436.305 560.734 437.474 560.962 438.025C561.19 438.557 561.636 438.823 562.302 438.823C562.986 438.823 563.433 438.576 563.642 438.082C563.87 437.588 563.984 436.523 563.984 434.889V417.44ZM589.614 421.66H578.809V419.123C578.809 416.196 579.142 413.943 579.807 412.366C580.491 410.769 581.85 409.363 583.884 408.146C585.917 406.93 588.559 406.322 591.81 406.322C595.706 406.322 598.642 407.015 600.619 408.403C602.596 409.771 603.784 411.463 604.183 413.478C604.582 415.473 604.782 419.598 604.782 425.851V444.839H593.577V441.474C592.874 442.824 591.962 443.841 590.84 444.525C589.738 445.19 588.417 445.523 586.877 445.523C584.863 445.523 583.009 444.962 581.318 443.841C579.645 442.7 578.809 440.22 578.809 436.4V433.292C578.809 430.46 579.256 428.531 580.149 427.505C581.042 426.478 583.257 425.281 586.792 423.912C590.574 422.43 592.598 421.432 592.864 420.919C593.131 420.405 593.264 419.36 593.264 417.783C593.264 415.806 593.112 414.523 592.807 413.934C592.522 413.325 592.038 413.021 591.353 413.021C590.574 413.021 590.089 413.278 589.899 413.791C589.709 414.285 589.614 415.587 589.614 417.697V421.66ZM593.264 426.849C591.42 428.198 590.346 429.329 590.042 430.241C589.757 431.154 589.614 432.465 589.614 434.176C589.614 436.134 589.738 437.397 589.985 437.968C590.251 438.538 590.764 438.823 591.524 438.823C592.247 438.823 592.712 438.604 592.921 438.167C593.15 437.711 593.264 436.533 593.264 434.632V426.849ZM619.407 398.681H631.496C634.765 398.681 637.274 398.937 639.022 399.451C640.79 399.964 642.111 400.705 642.985 401.674C643.878 402.644 644.477 403.822 644.781 405.21C645.104 406.578 645.266 408.707 645.266 411.596V415.616C645.266 418.562 644.962 420.71 644.354 422.059C643.745 423.409 642.624 424.444 640.989 425.167C639.374 425.889 637.255 426.25 634.632 426.25H631.41V444.839H619.407V398.681ZM631.41 406.578V418.324C631.752 418.343 632.047 418.353 632.294 418.353C633.396 418.353 634.157 418.087 634.575 417.554C635.012 417.003 635.23 415.872 635.23 414.162V410.37C635.23 408.792 634.983 407.766 634.489 407.291C633.995 406.816 632.969 406.578 631.41 406.578ZM659.892 398.681V409.058C660.88 408.146 661.944 407.462 663.085 407.006C664.244 406.55 665.48 406.322 666.791 406.322C668.806 406.322 670.516 406.835 671.923 407.861C673.348 408.887 674.213 410.075 674.517 411.425C674.84 412.755 675.002 415.198 675.002 418.752V444.839H663.484V418.21C663.484 416.005 663.37 414.589 663.142 413.962C662.933 413.335 662.448 413.021 661.688 413.021C660.984 413.021 660.509 413.344 660.262 413.991C660.015 414.637 659.892 415.92 659.892 417.84V444.839H648.374V398.681H659.892ZM689.285 421.66H678.48V419.123C678.48 416.196 678.813 413.943 679.478 412.366C680.162 410.769 681.521 409.363 683.555 408.146C685.589 406.93 688.231 406.322 691.481 406.322C695.377 406.322 698.314 407.015 700.29 408.403C702.267 409.771 703.455 411.463 703.854 413.478C704.253 415.473 704.453 419.598 704.453 425.851V444.839H693.248V441.474C692.545 442.824 691.633 443.841 690.511 444.525C689.409 445.19 688.088 445.523 686.549 445.523C684.534 445.523 682.681 444.962 680.989 443.841C679.316 442.7 678.48 440.22 678.48 436.4V433.292C678.48 430.46 678.927 428.531 679.82 427.505C680.713 426.478 682.928 425.281 686.463 423.912C690.245 422.43 692.27 421.432 692.536 420.919C692.802 420.405 692.935 419.36 692.935 417.783C692.935 415.806 692.783 414.523 692.479 413.934C692.193 413.325 691.709 413.021 691.025 413.021C690.245 413.021 689.761 413.278 689.571 413.791C689.381 414.285 689.285 415.587 689.285 417.697V421.66ZM692.935 426.849C691.091 428.198 690.017 429.329 689.713 430.241C689.428 431.154 689.285 432.465 689.285 434.176C689.285 436.134 689.409 437.397 689.656 437.968C689.922 438.538 690.435 438.823 691.196 438.823C691.918 438.823 692.384 438.604 692.593 438.167C692.821 437.711 692.935 436.533 692.935 434.632V426.849ZM720.133 407.006L719.934 410.484C720.77 409.096 721.787 408.061 722.984 407.376C724.201 406.673 725.598 406.322 727.175 406.322C729.152 406.322 730.768 406.787 732.022 407.719C733.277 408.65 734.084 409.828 734.445 411.254C734.807 412.66 734.987 415.017 734.987 418.324V444.839H723.469V418.638C723.469 416.034 723.384 414.447 723.212 413.877C723.041 413.306 722.566 413.021 721.787 413.021C720.97 413.021 720.456 413.354 720.247 414.019C720.038 414.665 719.934 416.414 719.934 419.265V444.839H708.416V407.006H720.133Z" fill="white"/>
<g clip-path="url(#clip0_52_64)">
<g clip-path="url(#clip1_52_64)">
<g clip-path="url(#clip2_52_64)">
<g clip-path="url(#clip3_52_64)">
<g clip-path="url(#clip4_52_64)">
<g clip-path="url(#clip5_52_64)">
<g clip-path="url(#clip6_52_64)">
<g clip-path="url(#clip7_52_64)">
<g clip-path="url(#clip8_52_64)">
<g clip-path="url(#clip9_52_64)">
<path d="M570.925 320.951C569.366 320.951 567.889 320.556 566.496 319.766C565.083 318.996 564.376 317.832 564.376 316.273V211.488C564.376 209.929 565.083 208.785 566.496 208.058C567.889 207.33 569.366 206.966 570.925 206.966C572.588 206.966 574.095 207.33 575.447 208.058C576.798 208.785 577.474 209.929 577.474 211.488V263.101L619.419 208.837C620.355 207.59 621.654 206.966 623.317 206.966C624.461 206.966 625.604 207.299 626.748 207.964C627.891 208.65 628.827 209.482 629.554 210.459C630.282 211.457 630.646 212.528 630.646 213.671C630.646 214.087 630.594 214.555 630.49 215.075C630.386 215.594 630.126 216.062 629.71 216.478L597.901 256.24L634.856 312.375C635.376 313.102 635.636 313.882 635.636 314.714C635.636 315.857 635.272 316.917 634.544 317.895C633.816 318.892 632.881 319.703 631.737 320.327C630.594 320.951 629.346 321.263 627.995 321.263C627.163 321.263 626.332 321.055 625.5 320.639C624.669 320.223 623.941 319.547 623.317 318.612L589.169 267.311L577.474 281.812V316.273C577.474 317.832 576.798 318.996 575.447 319.766C574.095 320.556 572.588 320.951 570.925 320.951Z" fill="white"/>
</g>
</g>
</g>
</g>
</g>
</g>
</g>
<path d="M700.767 202.477V171.642H515.821V356.587H700.767V325.752H690.459V346.28H526.128V181.949H690.459V202.477H700.767Z" fill="white"/>
</g>
</g>
</g>
<defs>
<clipPath id="clip0_52_64">
<rect width="298" height="186" fill="white" transform="translate(451 171)"/>
</clipPath>
<clipPath id="clip1_52_64">
<rect width="296.623" height="185.601" fill="white" transform="translate(451.694 171.293)"/>
</clipPath>
<clipPath id="clip2_52_64">
<rect width="295.913" height="184.945" fill="white" transform="translate(452.049 171.642)"/>
</clipPath>
<clipPath id="clip3_52_64">
<rect width="71.2598" height="114.296" fill="white" transform="translate(564.376 206.966)"/>
</clipPath>
<clipPath id="clip4_52_64">
<rect width="71.2598" height="114.296" fill="white" transform="translate(564.376 206.966)"/>
</clipPath>
<clipPath id="clip5_52_64">
<rect width="71.2598" height="114.296" fill="white" transform="translate(564.376 206.966)"/>
</clipPath>
<clipPath id="clip6_52_64">
<rect width="71.2598" height="114.296" fill="white" transform="translate(564.376 206.966)"/>
</clipPath>
<clipPath id="clip7_52_64">
<rect width="71.2598" height="114.296" fill="white" transform="translate(564.376 206.966)"/>
</clipPath>
<clipPath id="clip8_52_64">
<rect width="71.2598" height="114.296" fill="white" transform="translate(564.376 206.966)"/>
</clipPath>
<clipPath id="clip9_52_64">
<rect width="71.2598" height="114.296" fill="white" transform="translate(564.376 206.966)"/>
</clipPath>
</defs>
</svg>
